<svg width="48" height="48" viewBox="0 0 48 48" fill="none" xmlns="http://www.w3.org/2000/svg">
<path fill-rule="evenodd" clip-rule="evenodd" d="M37.0075 17C35.4335 16.9975 33.905 17.5285 32.6716 18.5065C31.4382 17.5284 29.9097 16.9974 28.3356 17C26.7616 16.9976 25.2333 17.5286 23.9999 18.5065C22.7666 17.5284 21.2382 16.9973 19.6642 17C18.0902 16.9976 16.5618 17.5286 15.3284 18.5065C14.0951 17.5286 12.5667 16.9975 10.9927 17C7.13015 17 4 20.1299 4 23.9927C4 27.855 7.12992 30.9854 10.9927 30.9854C12.5667 30.9878 14.095 30.4568 15.3284 29.4789C16.5618 30.4568 18.0902 30.9879 19.6642 30.9854C21.2382 30.988 22.7666 30.457 23.9999 29.4789C25.2333 30.4568 26.7616 30.9878 28.3356 30.9854C29.9097 30.988 31.4382 30.457 32.6716 29.4789C33.905 30.457 35.4334 30.988 37.0075 30.9854C40.8701 30.9854 44 27.8553 44 23.9927C44 20.1302 40.8701 17 37.0075 17ZM14.1843 28.3366C13.2933 28.9866 12.1801 29.3834 10.9927 29.3834C8.013 29.3834 5.60183 26.9724 5.60183 23.9927C5.60183 21.013 8.013 18.6018 10.9927 18.6018C12.1801 18.6018 13.2926 18.9988 14.1843 19.649C13.2018 20.8833 12.6684 22.4151 12.6717 23.9927C12.6724 25.5697 13.2054 27.1003 14.1843 28.3366ZM15.3287 27.1957C14.6415 26.2694 14.2715 25.1461 14.2737 23.9927C14.2708 22.8392 14.6409 21.7157 15.3287 20.7897C16.0163 21.7158 16.3863 22.8393 16.3836 23.9927C16.3857 25.1461 16.0158 26.2693 15.3287 27.1957ZM22.856 28.3366C21.9302 29.0182 20.8101 29.3845 19.6605 29.3818C18.5133 29.3841 17.3957 29.0177 16.4726 28.3366C17.4516 27.1004 17.9845 25.5699 17.9852 23.9929C17.9885 22.4153 17.455 20.8836 16.4726 19.6492C17.3956 18.968 18.5133 18.6015 19.6605 18.6039C20.8565 18.6039 21.9615 18.9908 22.856 19.6492C21.8735 20.8836 21.3401 22.4153 21.3434 23.9929C21.344 25.5699 21.877 27.1004 22.856 28.3366ZM23.9999 27.1957C23.3127 26.2694 22.9427 25.1461 22.945 23.9927C22.9422 22.8393 23.3122 21.7158 23.9999 20.7897C24.6877 21.7157 25.0578 22.8392 25.055 23.9927C25.0572 25.1461 24.6872 26.2694 23.9999 27.1957ZM31.5274 28.3366C30.633 28.9953 29.528 29.3818 28.3322 29.3818C27.1364 29.3818 26.0385 28.9946 25.144 28.3366C26.1231 27.1005 26.6561 25.5699 26.6566 23.9929C26.6599 22.4153 26.1265 20.8836 25.144 19.6492C26.0385 18.991 27.1364 18.6039 28.3322 18.6039C29.528 18.6039 30.633 18.9908 31.5274 19.6492C30.5451 20.8836 30.0117 22.4154 30.0148 23.9929C30.0156 25.5698 30.5486 27.1003 31.5274 28.3366ZM32.6718 27.1957C31.9846 26.2694 31.6146 25.1461 31.6169 23.9927C31.6139 22.8392 31.9839 21.7157 32.6718 20.7897C33.3594 21.7158 33.7295 22.8393 33.7267 23.9927C33.7288 25.146 33.3588 26.2693 32.6718 27.1957ZM37.0075 29.3834C35.8197 29.3834 34.7067 28.9866 33.8159 28.3366C34.7948 27.1004 35.3278 25.5698 35.3285 23.9929C35.3317 22.4154 34.7983 20.8836 33.8159 19.6492C34.7077 18.9992 35.8199 18.6021 37.0075 18.6021C39.9868 18.6021 42.3984 21.0132 42.3984 23.9929C42.3984 26.9722 39.9868 29.3834 37.0075 29.3834Z" fill="#121212"/>
</svg>
