<svg width="48" height="48" viewBox="0 0 48 48" fill="none" xmlns="http://www.w3.org/2000/svg">
<path fill-rule="evenodd" clip-rule="evenodd" d="M24 7.10629C14.6699 7.10629 7.10629 14.6699 7.10629 24C7.10629 33.3301 14.6699 40.8937 24 40.8937C33.3301 40.8937 40.8937 33.3301 40.8937 24C40.8937 14.6699 33.3301 7.10629 24 7.10629ZM6 24C6 14.0589 14.0589 6 24 6C33.9411 6 42 14.0589 42 24C42 33.9411 33.9411 42 24 42C14.0589 42 6 33.9411 6 24Z" fill="#121212"/>
<path d="M13.332 24.0005C13.332 18.1085 18.1081 13.3325 24.0003 13.3323C29.892 13.3325 34.6679 18.1084 34.6681 24.0005C34.6679 29.8923 29.892 34.6681 24.0003 34.6685C18.1081 34.6681 13.332 29.8923 13.332 24.0005ZM16.8824 16.8829C15.0603 18.7054 13.9345 21.2199 13.9342 24.0005C13.9345 26.781 15.0603 29.2956 16.8824 31.118C18.7049 32.9398 21.2194 34.0659 24.0003 34.0662C26.7805 34.0659 29.295 32.9398 31.1175 31.118C32.9395 29.2956 34.0654 26.781 34.0657 24.0005C34.0654 21.2199 32.9395 18.7054 31.1175 16.8829C29.295 15.0608 26.7805 13.935 24.0003 13.9347C21.2194 13.935 18.7049 15.0608 16.8824 16.8829Z" fill="#121212"/>
<path d="M13.3379 23.9999H24.0069V13.3323H24.0061C18.1142 13.3325 13.3383 18.1081 13.3379 23.9999Z" fill="#121212"/>
<path d="M34.667 23.9946H23.998V34.6692H23.9988C29.8905 34.669 34.6666 29.8864 34.667 23.9946Z" fill="#121212"/>
<path d="M36.3627 14.134L33.9852 15.7068L35.1102 13.5186C34.8178 13.1731 34.375 12.8099 34.375 12.8099L32.2047 13.8996L33.7973 11.5644C33.5329 11.3424 33.2269 11.1578 32.9335 10.9352L30.7045 14.412C30.7045 14.412 31.1266 14.6603 31.6431 15.1373L33.95 13.9439L32.7416 16.2144C33.0134 16.5014 33.2553 16.8492 33.5071 17.1596L37.0182 14.9879C37.0181 14.9879 36.8032 14.6501 36.3627 14.134ZM24.2481 11.7633L25.3179 9.39941L25.4147 12.3962C25.8455 12.4154 26.4811 12.5775 26.4811 12.5775L26.2891 8.33294C25.4824 8.21568 24.8387 8.18359 24.8387 8.18359L23.808 10.7476L22.8015 8.20424C22.8015 8.20424 22.1367 8.26902 21.3299 8.38617L21.1368 12.6635C21.1368 12.6635 21.7736 12.4792 22.2045 12.4602L22.2954 9.41748L23.3679 11.7632H24.2481V11.7633ZM15.1941 13.1531L15.1942 13.1488C15.2461 12.9582 15.2443 12.757 15.1889 12.5674C15.1335 12.3778 15.0267 12.2072 14.8804 12.0745C14.4464 11.6786 13.7998 11.6652 13.1099 12.3538C13.1099 12.3538 11.8381 13.629 10.9766 14.8779L14.0706 17.6996L16.4024 15.0854C16.9097 14.525 16.9295 13.7313 16.4655 13.3078C16.1185 12.9919 15.6155 12.947 15.1941 13.1531ZM12.2096 14.6697C13.3057 13.3119 13.7445 12.9408 13.7445 12.9408C14.0319 12.6921 14.2444 12.6703 14.4169 12.8276C14.5895 12.9847 14.5677 13.2902 14.3686 13.5098L12.8194 15.2255L12.2096 14.6697ZM15.6927 14.5556L14.0657 16.3619L13.4542 15.8044L15.0813 13.9981C15.2802 13.7785 15.5786 13.7249 15.7475 13.8789C15.9164 14.0329 15.8917 14.3361 15.6927 14.5556Z" fill="#121212"/>
</svg>
