<svg width="48" height="48" viewBox="0 0 48 48" fill="none" xmlns="http://www.w3.org/2000/svg">
<path d="M32.2609 11.5266C31.4392 15.2757 31.109 17.0149 30.4323 19.7057C29.7798 22.3063 29.2804 24.7264 28.4104 25.8995C27.5485 27.0972 26.3643 27.3433 25.5749 27.4418C25.164 27.491 24.8499 27.5156 23.9638 27.5156C23.0777 27.5156 22.7635 27.491 22.3527 27.4418C21.5552 27.3433 20.3791 27.0972 19.5172 25.8995C18.6552 24.7264 18.1477 22.2981 17.5194 19.7057C16.8427 16.9903 16.5125 15.2757 15.6908 11.5266C15.6908 11.5266 14.8691 11.5512 14.5147 11.5758C14.0072 11.6004 13.6286 11.6497 13.2178 11.6989C13.2178 11.6989 13.7011 19.4186 13.9186 22.7001C14.1361 26.1292 14.5469 31.9374 14.9014 36.3182C14.9014 36.3182 15.6022 36.4413 16.7541 36.4905C17.9544 36.5643 18.5102 36.5643 18.5102 36.5643C19.0177 34.6282 19.6138 31.962 20.3146 30.8053C20.8946 29.8783 21.7566 29.7798 22.2641 29.706C23.0374 29.6076 23.706 29.583 23.996 29.583C24.3102 29.583 24.9546 29.583 25.7279 29.706C26.2354 29.7798 27.0973 29.8783 27.6773 30.8053C28.3782 31.9538 28.9984 34.6282 29.4818 36.5643C29.4818 36.5643 30.0134 36.5643 31.2137 36.4905C32.3656 36.4166 33.0665 36.3182 33.0665 36.3182C33.4289 31.9374 33.8398 26.1538 34.0492 22.7001C34.2667 19.4432 34.75 11.6989 34.75 11.6989C34.3392 11.6497 33.9284 11.6004 33.4531 11.5758C33.0906 11.5512 32.277 11.5266 32.277 11.5266" fill="#121212"/>
<path d="M41.8067 16.0798C41.3233 11.1822 38.1012 10.1485 35.2898 9.6645C33.872 9.41839 31.3426 9.2215 29.7315 9.14767C28.3138 9.04922 24.9949 9 23.9799 9C22.9649 9 19.6541 9.04922 18.2283 9.14767C16.6172 9.2215 14.0878 9.41839 12.67 9.6645C9.85868 10.1567 6.63649 11.1822 6.15316 16.0798C6.00816 17.4252 5.984 19.1644 6.00816 21.0266C6.0565 24.1358 6.32233 26.2196 6.46733 27.688C6.56399 28.6889 6.97482 31.6832 7.49843 33.2255C8.22342 35.3585 8.86786 35.9656 9.64118 36.6055C11.0348 37.754 13.3467 38.1231 13.83 38.2216C16.4239 38.6892 21.668 38.7876 24.0041 38.7876C26.3402 38.7876 31.5843 38.7138 34.1781 38.2216C34.6615 38.1231 36.9653 37.7786 38.367 36.6055C39.1403 35.9656 39.7847 35.3585 40.5097 33.2255C41.0414 31.6832 41.4442 28.6725 41.5408 27.688C41.6858 26.2442 41.9517 24.1358 42 21.0266C41.9758 19.1398 41.9275 17.4006 41.8067 16.0798ZM40.0264 24.3081C39.7364 28.2295 39.3981 30.5757 38.9228 32.2657C38.4878 33.7588 37.9642 34.7432 37.1909 35.4487C35.894 36.6465 34.1137 36.8926 33.0504 37.0649C30.7868 37.4094 26.9685 37.5325 23.9799 37.5325C20.9913 37.5325 17.173 37.4094 14.9095 37.0649C13.8542 36.8926 12.0739 36.6465 10.7689 35.4487C9.99562 34.735 9.47202 33.7342 9.03702 32.2657C8.55369 30.5757 8.1912 28.2213 7.93342 24.3081C7.76426 21.9536 7.78842 18.1389 8.05425 16.0798C8.41675 12.9952 9.90701 11.4529 13.105 10.8869C14.5953 10.6161 16.6172 10.4192 18.5183 10.3208C20.0569 10.2224 22.5622 10.1731 23.9799 10.1731C25.3735 10.1485 27.9029 10.2224 29.4174 10.3208C31.3184 10.4192 33.3404 10.6161 34.8306 10.8869C38.0287 11.4775 39.5189 13.0198 39.9056 16.0798C40.1714 18.1143 40.1956 21.9372 40.0264 24.3081Z" fill="#121212"/>
</svg>
