<svg width="48" height="48" viewBox="0 0 48 48" fill="none" xmlns="http://www.w3.org/2000/svg">
<path fill-rule="evenodd" clip-rule="evenodd" d="M23.7972 14.4836C12.881 14.4836 4.03125 18.8531 4.03125 24.2415C4.03125 29.6302 12.881 34.0001 23.7972 34.0001C34.7126 34.0001 43.5628 29.6306 43.5628 24.2415C43.5624 18.8535 34.7122 14.4836 23.7972 14.4836ZM21.9219 16.6554C24.178 15.8579 30.8806 16.6554 33.4841 17.9059C34.3173 18.705 29.7689 21.2725 24.3531 22.3854C16.61 23.9469 20.29 17.9748 21.9219 16.6554ZM8.62438 28.2176C6.92228 27.004 3.58937 23.5308 9.11053 19.9202C12.027 18.2193 13.6586 17.8361 15.6721 17.4201C16.6448 17.2109 17.339 17.4546 16.4709 18.184C14.6309 20.0937 10.8115 26.4117 10.4648 27.8016C10.1862 28.7398 9.63115 28.9815 8.62438 28.2176ZM24.5254 32.2462C21.2623 32.5925 14.0061 31.5168 13.8666 30.5806C14.0061 28.3222 25.3939 24.5725 27.4419 26.6557C28.3108 28.2873 26.6444 32.1416 24.5254 32.2462ZM41.1226 25.6823C40.2886 27.5924 37.4767 29.7462 31.5748 31.2046C30.671 31.4114 30.3588 30.8567 30.9488 30.3357C31.9219 29.7458 36.609 21.8993 37.199 20.3358C37.5464 19.5367 38.2057 19.8505 38.6229 20.1623C40.4982 21.3771 41.9214 23.3565 41.1226 25.6823Z" fill="#121212"/>
</svg>
