<svg width="48" height="48" viewBox="0 0 48 48" fill="none" xmlns="http://www.w3.org/2000/svg">
<path d="M27.7859 27.9673C27.7859 28.04 27.8105 28.082 27.8556 28.082C27.8925 28.0782 27.9252 28.0629 27.954 28.0438L40.7323 20.306C40.9483 20.1652 41.2069 20.0928 41.4703 20.0994H44.2785C44.7089 20.0994 45 20.3672 45 20.7688V25.7718C45 26.3761 44.8565 26.728 44.2826 27.0493L40.8758 28.9617C40.8418 28.9837 40.8022 28.9969 40.761 29C40.72 29 40.679 28.9694 40.679 28.8584V23.0216C40.679 22.9528 40.6585 22.9069 40.6093 22.9069C40.5733 22.9107 40.5392 22.924 40.5109 22.9451L31.1721 28.606C30.9589 28.7399 30.7088 28.8125 30.4546 28.8087H24.2643C23.8297 28.8087 23.5427 28.541 23.5427 28.1356V20.9255C23.5427 20.872 23.5181 20.8223 23.4688 20.8223C23.433 20.8265 23.399 20.8398 23.3705 20.8605L17.2088 24.3106C17.1474 24.3488 17.1309 24.3756 17.1309 24.4024C17.1309 24.4253 17.1432 24.4483 17.1842 24.4903L21.5872 28.5945C21.6445 28.648 21.6856 28.6901 21.6856 28.736C21.6856 28.7742 21.62 28.8049 21.5421 28.8049H17.5654C17.2539 28.8049 17.012 28.7628 16.844 28.606L14.175 26.1198C14.1649 26.1085 14.1525 26.0993 14.1384 26.0927C14.1243 26.0861 14.1089 26.0823 14.0931 26.0815C14.0642 26.0828 14.036 26.0907 14.0111 26.1045L9.55089 28.606C9.28031 28.759 9.09581 28.8011 8.82931 28.8011H4.72574C4.287 28.8049 4 28.5334 4 28.1317V23.2244C4 22.6162 4.1435 22.2681 4.7215 21.9468L8.14881 20.0267C8.1757 20.0103 8.20688 20.0011 8.23898 20C8.29231 20 8.32098 20.0498 8.32098 20.1606V26.7318C8.32098 26.8007 8.3374 26.8313 8.39065 26.8313C8.42756 26.8275 8.4604 26.8121 8.49315 26.793L20.0704 20.2945C20.2918 20.153 20.5623 20.0842 20.8329 20.0956H27.0643C27.4947 20.0956 27.7859 20.3634 27.7859 20.765L27.7817 27.9673H27.7859Z" fill="#121212"/>
</svg>
