<svg width="48" height="48" viewBox="0 0 48 48" fill="none" xmlns="http://www.w3.org/2000/svg">
<path d="M24 6C33.9412 6 42 14.059 42 24C42 33.9408 33.9412 42 24 42C14.059 42 6 33.9408 6 24C6 14.059 14.059 6 24 6ZM9.39062 32.7676C12.4698 37.9414 18.05 41.0985 24.0674 41.0674C30.0693 41.0518 35.6339 37.8628 38.6816 32.6738L24.0049 26.7188L9.39062 32.7676ZM23.8027 7.02051C17.8008 7.09855 12.2675 10.3343 9.2666 15.5391C6.25033 20.7437 6.21879 27.1517 9.17285 32.3877L21.4736 22.4473L23.8027 7.02051ZM26.459 22.6514L38.8994 32.2793C41.7911 27.0434 41.7291 20.6822 38.7129 15.5088C37.2383 12.9652 35.13 10.8466 32.5938 9.35938C30.0574 7.87212 27.1791 7.06646 24.2393 7.02148L26.459 22.6514Z" fill="#121212"/>
</svg>
