<svg width="48" height="48" viewBox="0 0 48 48" fill="none" xmlns="http://www.w3.org/2000/svg">
<path fill-rule="evenodd" clip-rule="evenodd" d="M31.9362 6H16.2273L6 16.2271V31.8135L16.1455 42H31.7727L42 31.7727V16.1455L31.9362 6ZM38.891 30.3818L30.3818 38.891H17.6182L9.10918 30.4228V17.6182L17.6182 9.14998H30.5452L38.8908 17.5364V30.3818H38.891Z" fill="#121212"/>
<path fill-rule="evenodd" clip-rule="evenodd" d="M16.3572 19.9086L14.189 15.4903L10.957 18.5177V29.3587L14.0662 32.5087V21.954L16.7663 27.9677L19.8343 19.9496V36.7632H23.2706V11.1541H19.63L16.3572 19.9086ZM25.6736 11.1541V36.7632H29.601L37.0464 29.3587V23.9585H31.3191V27.0677H33.4464C34.0192 26.9857 34.06 27.6405 33.6507 28.1312C33.2418 28.6221 29.1099 32.6722 29.1099 32.6722V15.245L33.9371 20.2767V21.504H37.0462V18.6403L29.6826 11.1541H25.6736Z" fill="#121212"/>
</svg>
