<svg width="48" height="48" viewBox="0 0 48 48" fill="none" xmlns="http://www.w3.org/2000/svg">
<g clip-path="url(#clip0_3205_79908)">
<path d="M24.4712 13.0245C22.7041 13.0248 20.9656 13.4689 19.4161 14.3159C17.8666 15.1629 16.5561 16.3854 15.6055 17.8706H0.482422L1.98784 19.3715H14.82C14.5762 19.9365 14.3828 20.5217 14.2419 21.1205H3.74205L5.22897 22.603H13.9989C13.9701 22.9054 13.9545 23.2088 13.9521 23.5124C13.9549 23.7928 13.9689 24.0729 13.9942 24.352H6.98317L8.47046 25.8349H14.223C14.3564 26.4328 14.5421 27.018 14.7779 27.5836H10.2247L11.7297 29.0849H15.5747C16.5198 30.5872 17.8316 31.8261 19.3874 32.6857C20.9431 33.5452 22.6921 33.9974 24.4708 34C26.2496 33.9976 27.9988 33.5454 29.5547 32.6859C31.1106 31.8263 32.4225 30.5873 33.3677 29.0849H37.2119L38.7177 27.5836H34.1645C34.4003 27.018 34.586 26.4328 34.7193 25.8349H40.4719L41.9588 24.3524H34.9478C34.9731 24.0731 34.9871 23.7929 34.9899 23.5124C34.9876 23.2088 34.9721 22.9054 34.9435 22.603H43.7131L45.2 21.1205H34.6998C34.5591 20.5218 34.3659 19.9365 34.1224 19.3715H46.9542L48.46 17.8706H33.3369C32.3863 16.3854 31.0758 15.1629 29.5263 14.3159C27.9768 13.4689 26.2383 13.0248 24.4712 13.0245ZM24.4712 14.4463C26.8828 14.4463 29.1957 15.4015 30.901 17.1017C32.6062 18.8019 33.5643 21.108 33.5643 23.5124C33.5643 25.9169 32.6062 28.2229 30.901 29.9232C29.1957 31.6234 26.8828 32.5786 24.4712 32.5786C23.277 32.5786 22.0946 32.3442 20.9913 31.8886C19.888 31.433 18.8856 30.7652 18.0412 29.9233C17.1968 29.0814 16.527 28.082 16.07 26.982C15.613 25.882 15.3778 24.703 15.3778 23.5124C15.3778 22.3218 15.613 21.1429 16.07 20.0429C16.527 18.9429 17.1968 17.9435 18.0412 17.1016C18.8856 16.2597 19.888 15.5919 20.9913 15.1363C22.0946 14.6807 23.277 14.4463 24.4712 14.4463ZM17.2375 21.1625V25.862H18.2203V22.163L19.2575 25.862H20.2759L21.3164 22.163V25.862H22.2992V21.1625H20.7122L19.7722 24.3683L18.8212 21.1625H17.2375ZM23.3255 21.1625V25.862H24.3834V21.1625H23.3255ZM25.3989 21.1625V25.862H26.3817V22.7976L28.4946 25.862H29.5565V21.1625H28.5736V24.3011L26.4285 21.1625H25.3989ZM30.6466 21.1625V25.862H31.7049V21.1625H30.6466Z" fill="#121212"/>
</g>
<defs>
<clipPath id="clip0_3205_79908">
<rect width="48" height="48" fill="white"/>
</clipPath>
</defs>
</svg>
