<svg width="48" height="48" viewBox="0 0 48 48" fill="none" xmlns="http://www.w3.org/2000/svg">
<path d="M26.9786 25.1987C26.95 25.2058 26.8357 25.2058 26.7857 25.2058H23.1V26.0595H26.85C26.8786 26.0595 27.1 26.0595 27.1429 26.0524C27.9071 25.9813 28.2571 25.3481 28.2571 24.7932C28.2571 24.2241 27.8929 23.6123 27.2 23.5483C27.0643 23.534 26.95 23.534 26.9 23.534H24.45C24.3429 23.534 24.2214 23.5269 24.1786 23.5127C23.9857 23.4629 23.9143 23.2921 23.9143 23.1499C23.9143 23.0218 23.9857 22.8511 24.1857 22.7942C24.2429 22.7799 24.3071 22.7728 24.4429 22.7728H27.9786V21.9334H24.3857C24.2357 21.9334 24.1214 21.9405 24.0286 21.9547C23.4143 22.0401 22.9857 22.5309 22.9857 23.157C22.9857 23.6692 23.3071 24.2668 24.0143 24.3664C24.1429 24.3806 24.3214 24.3806 24.4 24.3806H26.7857C26.8286 24.3806 26.9357 24.3806 26.9571 24.3877C27.2286 24.4233 27.3214 24.6225 27.3214 24.8003C27.3214 24.9711 27.2143 25.156 26.9786 25.1987ZM19.9929 25.1987C19.9643 25.2058 19.85 25.2058 19.8071 25.2058H16.1143V26.0595H19.8643C19.8929 26.0595 20.1143 26.0595 20.1571 26.0524C20.9214 25.9813 21.2714 25.3481 21.2714 24.7932C21.2714 24.2241 20.9071 23.6123 20.2143 23.5483C20.0786 23.534 19.9643 23.534 19.9143 23.534H17.4643C17.3571 23.534 17.2357 23.5269 17.1929 23.5127C17 23.4629 16.9286 23.2921 16.9286 23.1499C16.9286 23.0218 17 22.8511 17.2 22.7942C17.2571 22.7799 17.3214 22.7728 17.4571 22.7728H20.9929V21.9334H17.4C17.25 21.9334 17.1357 21.9405 17.0429 21.9547C16.4286 22.0401 16 22.5309 16 23.157C16 23.6692 16.3214 24.2668 17.0286 24.3664C17.1571 24.3806 17.3357 24.3806 17.4143 24.3806H19.8C19.8429 24.3806 19.95 24.3806 19.9714 24.3877C20.2429 24.4233 20.3357 24.6225 20.3357 24.8003C20.3357 24.9711 20.2357 25.156 19.9929 25.1987ZM13.2643 21.9049H14.1929V26.0809H13.2643V21.9049ZM7.19286 21.9049H6V26.0809H6.92857V22.9507L10.0429 26.0809H11.2143V21.9049H10.2857V25.0209L7.19286 21.9049ZM36.7929 26.0809H37.7214V22.9507L40.8286 26.0809H42V21.9049H41.0786V25.0209L37.9857 21.9049H36.7929V26.0809ZM31.9571 21.9049L29.3429 26.0809H30.4714L30.9357 25.3339H33.9857L34.45 26.0809H35.5714L32.9571 21.9049H31.9571ZM33.5071 24.5442H31.4143L32.4643 22.8653L33.5071 24.5442ZM11.1643 19.5359C13.0357 14.0937 18.1929 10.437 24.0071 10.437C29.8214 10.437 34.9857 14.0937 36.85 19.5359L36.8643 19.5786H40.9571V19.0877L39.2571 18.8885C38.2071 18.7676 37.9857 18.3052 37.7 17.7218L37.6286 17.5796C35.1714 12.3721 29.8214 9 24.0071 9C18.1857 9 12.8429 12.3721 10.3857 17.5938L10.3143 17.7361C10.0286 18.3194 9.80714 18.7818 8.75714 18.9028L7.05714 19.102V19.5928H11.1429L11.1643 19.5359ZM36.8643 28.4143L36.85 28.457C34.9786 33.8992 29.8214 37.5487 24.0071 37.5487C18.1929 37.5487 13.0286 33.8921 11.1643 28.4498L11.15 28.4072H7.06429V28.898L8.76429 29.0972C9.81429 29.2182 10.0357 29.6806 10.3214 30.2639L10.3929 30.4062C12.85 35.6279 18.2 39 24.0143 39C29.8286 39 35.1786 35.6279 37.6357 30.4133L37.7071 30.271C37.9929 29.6877 38.2143 29.2253 39.2643 29.1043L40.9643 28.9051V28.4143H36.8643Z" fill="#121212"/>
</svg>
