<svg width="48" height="48" viewBox="0 0 48 48" fill="none" xmlns="http://www.w3.org/2000/svg">
<path d="M24.4795 42.5132C34.4183 42.5132 42.4717 34.4496 42.4717 24.4994C42.4718 14.5486 34.4183 6.46973 24.4795 6.46973C14.5409 6.46973 6.47168 14.5486 6.47168 24.4993C6.47168 34.4495 14.5409 42.5132 24.4795 42.5132Z" fill="#121212"/>
<path d="M24.479 42.0612C34.1684 42.0612 42.0197 34.2005 42.0197 24.4994C42.0197 14.7982 34.1684 6.922 24.479 6.922C14.7896 6.922 6.93848 14.7983 6.93848 24.4994C6.93848 34.2005 14.7896 42.0612 24.479 42.0612Z" fill="white"/>
<path d="M24.4796 41.5306C33.8729 41.5306 41.5062 33.9041 41.5062 24.4996C41.5062 15.0791 33.873 7.45239 24.4796 7.45239C15.0862 7.45239 7.45312 15.0791 7.45312 24.4996C7.45316 33.9041 15.0862 41.5306 24.4796 41.5306Z" fill="#121212"/>
<path d="M24.4794 35.1359C30.3522 35.1359 35.1034 30.3638 35.1034 24.4993C35.1034 18.6193 30.3522 13.8467 24.4794 13.8467C18.6066 13.8467 13.8398 18.6193 13.8398 24.4993C13.8398 30.3638 18.6066 35.1359 24.4794 35.1359ZM26.4423 9.16771C26.8938 9.80734 26.9564 10.6963 26.8317 11.4603C26.6917 12.1624 26.1308 12.5991 25.492 12.8019C24.495 12.9266 23.2801 13.1761 22.3921 12.2248C21.8937 11.5229 21.8937 10.6339 22.0804 9.74485C22.3298 8.79353 23.4202 8.54401 24.3081 8.48145C25.0871 8.48152 25.8814 8.60635 26.4423 9.16771Z" fill="white"/>
<path d="M25.3043 9.94765C25.3667 10.5249 25.5537 11.4139 25.1175 11.913C24.7281 12.1937 24.1829 12.3028 23.7934 12.0377C23.2794 11.5386 23.3572 10.7743 23.4819 10.1349C23.544 9.76051 23.7934 9.37062 24.1829 9.30831C24.6034 9.2459 25.1799 9.43304 25.3043 9.94765Z" fill="#121212"/>
<path d="M34.0126 12.0844C34.2774 12.8487 34.0126 13.5506 33.6385 14.1744C33.327 14.7515 32.4547 15.2192 31.9873 15.1415C30.9593 14.9544 30.0866 14.3149 29.0742 13.6911L31.0839 10.0569C32.1121 10.6183 33.3738 10.9458 34.0126 12.0844Z" fill="white"/>
<path d="M32.8137 12.2718C32.8761 12.8488 32.6267 13.4883 32.1126 13.8627C31.614 14.2526 30.5859 13.4883 30.5859 13.4883L31.723 11.3828C32.1749 11.6479 32.6891 11.7727 32.8137 12.2718Z" fill="#121212"/>
<path d="M12.1881 15.7027C11.8141 16.1395 11.3624 16.5295 11.3002 17.0908C11.3002 17.2781 11.4714 17.5119 11.6895 17.4807C12.3128 16.966 12.9513 15.89 13.8393 16.1395C14.291 16.1395 14.7272 16.5918 14.8518 16.9659C15.1167 18.1045 14.291 19.0716 13.5277 19.8202L12.8268 19.3835C13.3408 18.9311 14.0886 18.2451 13.7768 17.5431C12.7957 17.0596 12.6398 18.8688 11.6272 18.8688C11.1754 18.8688 10.5679 18.5568 10.4122 18.0423C10.4122 18.0423 10.3498 17.7303 10.3498 17.5275C10.3343 17.1688 10.49 16.7788 10.6614 16.4513C10.8483 16.1395 11.0509 15.8899 11.0509 15.8899L11.6273 15.2505L12.1881 15.7027ZM10.3499 16.7788C10.2096 16.7945 9.96038 16.8257 9.80469 16.8413C9.83584 16.7321 9.97603 16.3891 9.97603 16.3891L10.4746 16.3111L10.2408 15.9055C10.3498 15.7495 10.4277 15.578 10.5369 15.4221L10.8171 15.9367L10.3499 16.7788ZM38.8262 17.59L35.7105 21.0679L35.1186 19.8046L35.8665 19.0871L35.025 17.6368L34.0749 17.855L33.3581 16.8413L37.9225 16.077L38.8262 17.59Z" fill="white"/>
<path d="M36.3646 18.4478L35.8037 17.4341L37.7197 17.0597L36.3646 18.4478Z" fill="#121212"/>
<path d="M18.0145 38.4424L17.0643 37.8341L17.2669 37.1637L16.4099 36.5241L15.7869 36.9454C15.5376 36.727 15.3039 36.5087 15.0703 36.2903L17.5471 34.4496L18.8246 35.214L18.0145 38.4424ZM33.0937 35.8536C33.3274 36.3838 33.156 36.9454 32.7666 37.2571C32.2681 37.7719 31.6918 38.0837 30.9909 38.0216C30.3678 37.9588 29.8536 37.3193 29.6668 36.8204C29.5421 36.3056 29.5421 35.7595 29.9159 35.417C30.4297 34.9643 30.9286 34.6679 31.6294 34.5904C32.2681 34.5904 32.8446 35.2922 33.0937 35.8536Z" fill="white"/>
<path d="M17.5313 36.5554L16.9395 36.1341L17.7807 35.4324L17.5313 36.5554ZM32.1434 36.3217C32.3459 36.7738 32.1277 37.195 31.6447 37.2726C30.9907 37.3975 30.7724 36.6803 30.5543 36.3057C30.3676 35.9312 30.6167 35.417 31.0532 35.3542C31.6917 35.2294 31.8941 35.9472 32.1434 36.3217Z" fill="#121212"/>
<path d="M21.3476 38.4583C21.3321 38.7855 21.9396 39.0039 22.1576 38.6607C22.2355 38.4269 22.4381 37.2725 22.5627 36.5708C22.8897 36.6489 23.2637 36.727 23.5128 36.7897C23.435 37.3193 23.3572 38.8009 22.7184 39.363C22.2822 39.6902 21.5813 39.5032 21.1296 39.363C20.1169 39.0038 20.2883 38.1618 20.2883 38.1618L20.7556 36.1968L21.7215 36.3992L21.3476 38.4583ZM27.1581 37.1169L27.6099 39.3784L26.6129 39.5814L26.1611 37.3039L25.3822 37.4909L25.2265 36.8046L27.8124 36.2276L27.9994 36.914L27.1581 37.1169Z" fill="white"/>
<path d="M26.3329 15.5469C29.0434 18.4635 30.539 22.4093 29.3706 26.5891C29.3706 26.5891 29.0278 27.5873 28.9344 27.9929C28.8564 28.3984 28.8721 28.7102 28.8721 28.7102C28.9965 28.9756 29.4016 29.0533 29.6666 28.991C29.9311 28.7259 29.4639 28.3828 29.7287 28.0553C31.0375 27.9305 32.1278 28.8508 33.1092 29.7085C32.2525 30.7538 30.9595 31.7515 29.6353 31.4242C29.4486 31.1591 30.0558 30.816 29.651 30.5508L20.0083 30.5349C19.7279 30.5508 19.2139 31.3775 18.9179 31.4556C18.4973 31.5491 17.7963 31.5331 17.6094 31.4243C17.2042 31.0183 17.1109 30.3639 16.8461 29.8956C16.5812 29.3187 15.3817 28.7259 15.5842 28.2893C15.6777 28.1333 17.9833 27.7902 19.4632 28.3203C20.0239 28.57 20.6004 29.0846 21.1923 28.9285C21.2233 28.913 21.2701 28.8975 21.3013 28.8195C21.457 27.0102 20.1486 25.0139 18.2324 24.0938C17.6716 23.8286 17.2667 23.7661 16.7214 23.813C16.145 23.844 15.5375 23.9065 15.1482 23.6259C14.8209 23.3764 14.8833 22.5341 15.1325 21.7075C15.2571 21.3332 15.4285 20.9276 15.5999 20.6003C16.3788 18.8845 18.8401 20.7093 19.1671 20.8809C19.5878 21.0992 20.0239 21.5671 20.1486 20.9589C20.1174 20.569 19.3541 20.1947 18.8556 19.9295C17.3913 19.1498 16.4566 19.3369 16.9239 18.4478C17.0642 18.1828 17.5314 17.5745 18.1702 17.0286C18.8244 16.4515 19.6499 15.9056 20.2576 15.8277C21.348 15.7186 22.5163 17.2626 22.5163 17.2626L23.9028 18.8066C24.1677 18.9625 24.3233 18.7909 24.3544 18.6819C24.4324 18.4479 24.2144 18.1982 24.2144 18.1982C24.2144 18.1982 23.5757 17.4185 23.2329 17.0754C22.9059 16.7323 21.9401 15.8122 21.9401 15.8122C21.5661 15.1571 22.2671 14.9543 22.6564 14.8918C23.9183 14.767 25.3045 14.424 26.3329 15.5469Z" fill="#121212"/>
<path d="M26.364 28.1955C27.174 28.1955 27.8285 27.5405 27.8285 26.7295C27.8285 25.9184 27.174 25.2479 26.364 25.2479C25.5541 25.2479 24.8999 25.9184 24.8999 26.7295C24.8999 27.5406 25.5541 28.1955 26.364 28.1955ZM17.9677 12.1779C18.7155 12.6459 19.65 12.9577 20.3979 13.4881L19.1205 14.0963L16.8774 12.9266L16.9085 10.5404L18.0613 9.93201C18.1856 10.5717 17.9834 11.4761 17.9677 12.1779ZM17.0643 15.4533L14.7432 11.9752L15.709 11.2889L18.0456 14.7203L17.0643 15.4533Z" fill="white"/>
</svg>
