<svg width="48" height="48" viewBox="0 0 48 48" fill="none" xmlns="http://www.w3.org/2000/svg">
<path fill-rule="evenodd" clip-rule="evenodd" d="M6 31.4062H13.7596V33.7073H11.3427V40.4834H8.41698V33.7073H6V31.4062ZM23.8094 31.4062H31.569V33.7073H29.1523V40.4834H26.2264V33.7073H23.8094V31.4062ZM13.5053 40.4834L16.8128 31.4062H20.5019L24.1908 40.4834H20.8835L18.8482 34.6023L16.6855 40.4834H13.5053ZM31.3145 40.4834L34.622 31.4062H38.3115L42 40.4834H38.6927L36.6576 34.6023L34.4949 40.4834H31.3145ZM23.648 8C29.5417 8 34.6286 10.4653 36.8646 13.9807C33.4983 13.0592 29.6018 12.3495 25.5548 12.4848C24.9093 12.5064 24.4097 12.6742 24.4097 13.2833V27.9426C23.913 27.9607 23.4158 27.9611 22.9191 27.9436V13.2833C22.9191 12.674 22.4195 12.5064 21.774 12.4848C17.7114 12.3488 13.8002 13.0648 10.4248 13.9916C12.657 10.4702 17.7483 8 23.648 8ZM37.8417 16.1792C37.998 16.7661 38.0773 17.3708 38.0778 17.9781C38.0778 22.3051 34.059 26.0031 28.4715 27.3806L26.8231 16.3207C26.6892 15.4213 26.6975 14.8093 27.4629 14.786C31.7566 14.6551 34.2764 15.2932 37.8417 16.1792ZM18.8562 27.3883C13.252 26.0169 9.2184 22.3133 9.2184 17.9783C9.2184 17.3676 9.2988 16.7692 9.45238 16.1881C13.0359 15.297 15.5581 14.6551 19.8659 14.7864C20.6315 14.8097 20.6396 15.4217 20.5057 16.3211L18.8562 27.3883Z" fill="#121212"/>
</svg>
