<svg width="48" height="48" viewBox="0 0 48 48" fill="none" xmlns="http://www.w3.org/2000/svg">
<path d="M24 11C12.9552 11 4 16.7931 4 23.9373C4 31.0841 12.9552 36.8799 24 36.8799C35.0448 36.8799 44 31.0867 44 23.9373C44 16.7879 35.0448 11 24 11ZM24 31.3259C22.3572 31.3259 21.0167 28.0903 20.9326 24.0188C21.9209 24.1055 22.9486 24.1528 24 24.1528C25.0514 24.1528 26.0791 24.1055 27.0674 24.0188C26.9833 28.0877 25.6428 31.3259 24 31.3259ZM21.135 20.7858C21.5818 17.9076 22.6963 15.8653 24 15.8653C25.3037 15.8653 26.4182 17.9076 26.865 20.7858C25.9477 20.8673 24.9909 20.9119 24 20.9119C23.0091 20.9119 22.0523 20.8673 21.135 20.7858ZM24 12.8715C21.8552 12.8715 20.0258 16.0835 19.3502 20.5676C15.284 19.9342 12.4453 18.4885 12.4453 16.8089C12.4453 14.5432 17.6181 12.7059 24 12.7059C30.3819 12.7059 35.5547 14.5432 35.5547 16.8089C35.5547 18.4885 32.716 19.9342 28.6498 20.5676C27.9742 16.0835 26.1448 12.8715 24 12.8715ZM6.86766 23.4537C6.86766 21.2615 7.71139 19.2034 9.18071 17.4371C9.16494 17.5607 9.15442 17.6868 9.15442 17.813C9.15442 20.5755 13.2969 22.9306 19.0769 23.798C19.0716 23.9978 19.0716 24.2002 19.0716 24.4025C19.0716 29.5517 20.5147 33.9123 22.5097 35.3922C13.7437 34.8638 6.86766 29.7199 6.86766 23.4537ZM25.4903 35.3922C27.4853 33.9123 28.9284 29.5517 28.9284 24.4025C28.9284 24.1975 28.9257 23.9978 28.9231 23.798C34.7005 22.9306 38.8456 20.5781 38.8456 17.813C38.8456 17.6868 38.8351 17.5607 38.8193 17.4371C40.2886 19.2087 41.1323 21.2615 41.1323 23.4537C41.1323 29.7199 34.2563 34.8638 25.4903 35.3922Z" fill="#121212"/>
</svg>
