<svg width="48" height="48" viewBox="0 0 48 48" fill="none" xmlns="http://www.w3.org/2000/svg">
<path d="M24.0254 40.3696C15.0614 40.3696 7.71739 32.9896 7.71739 24.0256C7.71739 22.0096 8.07739 20.1016 8.76139 18.3016L18.3014 37.4896C18.4094 37.7416 18.5894 37.9576 18.8774 37.9576C19.1654 37.9576 19.3454 37.7416 19.4534 37.4896L23.8454 27.6616C23.8814 27.5536 23.9534 27.4456 24.0614 27.4456C24.1694 27.4456 24.2054 27.5536 24.2774 27.6616L28.6694 37.4896C28.7774 37.7416 28.9574 37.9576 29.2454 37.9576C29.5334 37.9576 29.7134 37.7416 29.8214 37.4896L39.3614 18.3016C40.0454 20.1016 40.4054 22.0096 40.4054 24.0256C40.3334 32.9896 32.9894 40.3696 24.0254 40.3696ZM24.0254 20.3176C23.9174 20.3176 23.8814 20.2096 23.8094 20.1016L18.6974 8.58163C20.3534 7.96963 22.1534 7.64563 24.0254 7.64563C25.8974 7.64563 27.6974 7.96963 29.3534 8.58163L24.2414 20.1016C24.1694 20.2456 24.1334 20.3176 24.0254 20.3176ZM18.8054 32.1616C18.6974 32.1616 18.6614 32.0536 18.5894 31.9456L10.3094 15.2416C11.7854 12.9736 13.7654 11.0656 16.1774 9.73363L22.1534 23.0176C22.2254 23.2336 22.4054 23.3056 22.5854 23.3056H25.4654C25.6814 23.3056 25.8254 23.2696 25.9334 23.0176L31.9094 9.73363C34.2854 11.0656 36.3014 12.9736 37.7774 15.2416L29.4254 31.9456C29.3894 32.0536 29.3174 32.1616 29.2094 32.1616C29.1014 32.1616 29.0654 32.0536 28.9934 31.9456L25.8614 24.8176C25.7534 24.5656 25.6094 24.5296 25.3934 24.5296H22.5134C22.2974 24.5296 22.1534 24.5656 22.0454 24.8176L19.0214 31.9456C18.9854 32.0536 18.9134 32.1616 18.8054 32.1616ZM24.0254 42.0256C33.9974 42.0256 42.0254 33.9976 42.0254 24.0256C42.0254 14.0536 33.9974 6.02563 24.0254 6.02563C14.0534 6.02563 6.02539 14.0536 6.02539 24.0256C6.02539 33.9976 14.0534 42.0256 24.0254 42.0256Z" fill="#121212"/>
</svg>
